<?xml version="1.0" encoding="utf-8"?>
<!-- Generator: Adobe Illustrator 19.2.0, SVG Export Plug-In . SVG Version: 6.00 Build 0)  -->
<svg version="1.1" xmlns="http://www.w3.org/2000/svg" xmlns:xlink="http://www.w3.org/1999/xlink" width="17mm" height="17mm"
	 viewBox="0 0 800 800" style="enable-background:new 0 0 800 800;" xml:space="preserve">
<style type="text/css">
	.st0{fill:#333333;stroke:#4D4D4D;stroke-miterlimit:10;}
	.st1{fill:#333333;}
	.st2{stroke:#4D4D4D;stroke-miterlimit:10;}
	.st3{fill:#BDCCD4;}
	.st4{fill:none;}
	.st5{fill:#3FA9F5;stroke:#FFFFFF;stroke-miterlimit:10;}
	.st6{fill:#3FA9F5;}
	.st7{fill:#3FA9F5;stroke:#000000;stroke-miterlimit:10;}
</style>
<g id="Layer_1">
	<ellipse class="st0" cx="405.4" cy="437.1" rx="347.5" ry="276.4"/>
	<rect x="57.9" y="337.1" class="st1" width="695.1" height="127.6"/>
	<ellipse class="st2" cx="404.9" cy="352.3" rx="347.5" ry="290"/>
</g>
<g id="Layer_2">
</g>
<g id="Layer_4">
	<polygon class="st3" points="414.4,1.4 384,1.4 370.2,64.1 430,64.1 	"/>
</g>
<g id="Layer_7">
	<rect x="238.4" y="560.8" width="301.8" height="117.5"/>
</g>
<g id="Layer_5">
	<path class="st3" d="M327.5,662.1c2.4-40.7,1.5-41.7,1.5-79.8c-51.6-11.4-78.7-33.3-149.3-75.4c-61.4-36.6-103.8-90-103.8-90
		s26.6,268,30.8,286.7s30.3,94.3,30.3,94.3H187c0,0,2.2-36,8.3-82.7c7.8-52.6,12.5-62.1,12.5-62.1S249.4,658.7,327.5,662.1z"/>
	<rect x="133" y="552.9" width="47.6" height="108.2"/>
	<ellipse class="st4" cx="156.8" cy="771.5" rx="21.9" ry="19.6"/>
	<path class="st3" d="M472.6,663.2c-2.4-40.9-1.5-41.9-1.5-80.1c51.6-11.5,78.7-33.5,149.3-75.8c61.4-36.8,103.8-90.4,103.8-90.4
		s-26.6,268.9-30.8,287.7c-4.2,18.8-30.3,94.4-30.3,94.4h-49.9c0,0-2.2-35.9-8.3-82.7c-7.8-52.8-12.5-62.2-12.5-62.2
		S550.8,659.8,472.6,663.2z"/>
	<rect x="621.1" y="553.6" width="47.6" height="106.8"/>
	<ellipse class="st4" cx="639.6" cy="775.8" rx="21.9" ry="19.3"/>
	<circle class="st4" cx="400.1" cy="21.9" r="21.9"/>
	<path class="st3" d="M374.2,553.6"/>
</g>
<g id="Layer_6">
	<ellipse class="st5" cx="402.4" cy="378.2" rx="100.3" ry="69.1"/>
	<rect x="300.7" y="147.1" class="st6" width="202" height="231.1"/>
	<ellipse class="st7" cx="401" cy="151.6" rx="100.3" ry="68.1"/>
	<ellipse cx="400.1" cy="146.6" rx="81.9" ry="53.8"/>
</g>
<g id="Layer_3">
	<line x1="427.3" y1="445.2" x2="427.3" y2="217.3"/>
	<line x1="412.8" y1="447" x2="412.8" y2="219.7"/>
	<line x1="308.2" y1="402.1" x2="308.2" y2="177.5"/>
	<line x1="318.3" y1="415.9" x2="318.3" y2="190.1"/>
	<line x1="329.3" y1="425.6" x2="329.3" y2="199.2"/>
	<line x1="343.5" y1="434.2" x2="343.5" y2="208.2"/>
	<line x1="493.9" y1="406.6" x2="493.9" y2="177.4"/>
	<line x1="482" y1="420.2" x2="482" y2="191.8"/>
	<line x1="471" y1="429.6" x2="471" y2="200.4"/>
	<line x1="456.7" y1="436.3" x2="456.7" y2="208.2"/>
	<line x1="358.5" y1="440.4" x2="358.5" y2="213.8"/>
	<line x1="373" y1="444.4" x2="373" y2="217.3"/>
	<line x1="387.5" y1="446.6" x2="387.5" y2="219.1"/>
	<line x1="400.1" y1="447.3" x2="400.1" y2="220.6"/>
	<line x1="441.7" y1="442.2" x2="441.7" y2="213.8"/>
</g>
</svg>
